<svg width="158" height="75" viewBox="0 0 158 75" fill="none" xmlns="http://www.w3.org/2000/svg">
<path d="M112.887 40.3426C124.045 40.3426 133.089 31.3116 133.089 20.1713C133.089 9.031 124.045 0 112.887 0C101.73 0 92.6858 9.031 92.6858 20.1713C92.6858 31.3116 101.73 40.3426 112.887 40.3426Z" fill="#40BCF4"/>
<path d="M78.6057 40.3426C89.7628 40.3426 98.8074 31.3116 98.8074 20.1713C98.8074 9.031 89.7628 0 78.6057 0C67.4487 0 58.4041 9.031 58.4041 20.1713C58.4041 31.3116 67.4487 40.3426 78.6057 40.3426Z" fill="#00E054"/>
<path d="M44.3241 40.3426C55.4811 40.3426 64.5257 31.3116 64.5257 20.1713C64.5257 9.031 55.4811 0 44.3241 0C33.167 0 24.1224 9.031 24.1224 20.1713C24.1224 31.3116 33.167 40.3426 44.3241 40.3426Z" fill="#FF8000"/>
<path fill-rule="evenodd" clip-rule="evenodd" d="M61.4649 30.8514C59.5252 27.7542 58.4041 24.0935 58.4041 20.1713C58.4041 16.249 59.5252 12.5883 61.4649 9.49109C63.4046 12.5883 64.5258 16.249 64.5258 20.1713C64.5258 24.0935 63.4046 27.7542 61.4649 30.8514Z" fill="white"/>
<path fill-rule="evenodd" clip-rule="evenodd" d="M95.7467 9.49109C97.6864 12.5883 98.8075 16.249 98.8075 20.1713C98.8075 24.0935 97.6864 27.7542 95.7467 30.8514C93.8069 27.7542 92.6858 24.0935 92.6858 20.1713C92.6858 16.249 93.8069 12.5883 95.7467 9.49109Z" fill="white"/>
<path fill-rule="evenodd" clip-rule="evenodd" d="M44.991 57.5286C45.6222 57.5286 46.0525 57.4708 46.626 57.3548C47.6875 57.2102 48.0889 56.7468 48.2611 55.3279C48.347 54.6329 48.4043 54.0246 48.4333 53.3296H52.7358V57.5286H56.6944V62.191H52.7358V66.2158C52.7358 69.1116 53.1662 69.4303 55.6329 69.4303H56.6944V74.3241H54.0551C49.0355 74.3241 47.8021 72.4999 47.8021 67.2585V62.191H46.4072H40.8729V66.2158C40.8729 69.1116 41.3029 69.4303 43.7696 69.4303H44.8311V74.3241H42.1919C37.1722 74.3241 35.9392 72.4999 35.9392 67.2585V62.191H33.1281V57.8181C33.7589 57.8181 34.1892 57.7603 34.7628 57.6443C35.8243 57.4997 36.2259 57.0364 36.3978 55.6174C36.4841 54.9224 36.5414 54.0246 36.5697 53.3296H40.8729V57.5286H44.991ZM0 53.5613H5.3927V69.1408H14.0265V74.3241H0V53.5613ZM23.9497 74.7584C18.1843 74.7584 15.4881 71.5154 15.4881 66.3318V65.8396C15.4881 60.4536 18.8441 57.1812 24.0357 57.1812C29.9163 57.1812 32.4116 61.0326 32.4116 65.579V67.4613H20.68C20.9378 69.4881 22.0855 70.5887 24.0933 70.5887C25.5561 70.5887 26.3595 69.9515 26.7608 68.9962H32.2971C31.3791 72.5288 28.7975 74.7584 23.9497 74.7584ZM20.68 64.16H27.2488C27.0189 62.2777 26.0441 61.1772 24.0933 61.1772C22.1428 61.1772 21.0241 62.191 20.68 64.16ZM66.4174 74.7584C60.6519 74.7584 57.9554 71.5154 57.9554 66.3318V65.8396C57.9554 60.4536 61.3114 57.1812 66.5033 57.1812C72.3836 57.1812 74.8789 61.0326 74.8789 65.579V67.4613H63.1473C63.4057 69.4881 64.5528 70.5887 66.5606 70.5887C68.0237 70.5887 68.8268 69.9515 69.2284 68.9962H74.7644C73.8464 72.5288 71.2648 74.7584 66.4174 74.7584ZM63.1473 64.16H69.716C69.4866 62.2777 68.5113 61.1772 66.5606 61.1772C64.6101 61.1772 63.4917 62.191 63.1473 64.16ZM77.0294 74.3241V57.5286H81.2174L81.9345 60.9745C82.4797 58.3686 84.1717 57.2969 87.155 57.2969H88.1016V62.8278H86.1515C83.1102 62.8278 82.3648 63.8994 82.3648 66.8819V74.3241H77.0294ZM94.9277 71.5155L94.5257 74.3242H89.965V52.0267H95.1282V60.2217C96.0175 58.3105 97.6812 57.1814 100.004 57.1814C103.733 57.21 106.487 59.7873 106.487 65.4631V65.9843C106.487 71.689 103.991 74.7583 99.8898 74.7583C97.3654 74.7583 95.7307 73.4842 94.9277 71.5155ZM101.296 65.9554V65.5498C101.296 62.8858 100.033 61.5539 98.2261 61.5539C96.3329 61.5539 95.0423 63.0307 95.0423 65.492V65.8686C95.0423 68.7933 96.3043 70.1544 98.1978 70.1544C100.12 70.1544 101.296 68.9093 101.296 65.9554ZM108.092 66.3319V65.8104C108.092 60.1057 111.592 57.1814 116.496 57.1814C121.487 57.1814 124.872 60.1928 124.872 65.8104V66.3319C124.872 71.9207 121.545 74.7583 116.468 74.7583C111.075 74.7583 108.092 71.9207 108.092 66.3319ZM119.681 66.2738V65.8104C119.681 63.0596 118.533 61.6407 116.525 61.6407C114.574 61.6407 113.284 63.0018 113.284 65.8104V66.2738C113.284 68.8511 114.574 70.2122 116.496 70.2122C118.418 70.2122 119.681 68.9093 119.681 66.2738ZM133.189 69.5752L130.149 74.324H124.01L130.149 65.579L124.584 57.5286H130.493L133.218 61.7854L135.943 57.5286H141.823L136.287 65.5211L142.196 74.324H136.23L133.189 69.5752ZM153.067 71.3995C152.235 73.3686 150.571 74.643 148.018 74.643C144.002 74.643 141.478 71.718 141.478 65.9554V65.4628C141.478 59.8162 144.232 57.21 148.047 57.21C150.456 57.21 152.034 58.2238 152.866 59.9322V52.0268H158V74.3242H153.554L153.067 71.3995ZM152.923 65.9265V65.5499C152.923 63.0018 151.69 61.5539 149.826 61.5539C147.875 61.5539 146.728 62.9147 146.728 65.5499V65.9265C146.728 68.9382 147.961 70.1544 149.739 70.1544C151.661 70.1544 152.923 68.7644 152.923 65.9265Z" fill="white"/>
</svg>
